<svg width="26" height="26" viewBox="0 0 26 26" fill="none" xmlns="http://www.w3.org/2000/svg">
<path d="M11.569 4.20691H4.20696C3.64909 4.20691 3.11407 4.42852 2.7196 4.82299C2.32513 5.21747 2.10352 5.75249 2.10352 6.31036V21.0345C2.10352 21.5924 2.32513 22.1274 2.7196 22.5219C3.11407 22.9163 3.64909 23.1379 4.20696 23.1379H18.9311C19.489 23.1379 20.024 22.9163 20.4185 22.5219C20.8129 22.1274 21.0345 21.5924 21.0345 21.0345V13.6724" stroke="#4B526D" stroke-width="2" stroke-linecap="round" stroke-linejoin="round"/>
<path d="M19.4567 2.62929C19.8751 2.21089 20.4426 1.97583 21.0343 1.97583C21.626 1.97583 22.1934 2.21089 22.6118 2.62929C23.0303 3.04769 23.2653 3.61516 23.2653 4.20687C23.2653 4.79858 23.0303 5.36606 22.6118 5.78446L12.6205 15.7758L8.41357 16.8276L9.4653 12.6207L19.4567 2.62929Z" stroke="#4B526D" stroke-width="2" stroke-linecap="round" stroke-linejoin="round"/>
</svg>
